<?xml version="1.0" encoding="UTF-8" standalone="no"?>
<svg
   xmlns:dc="http://purl.org/dc/elements/1.1/"
   xmlns:cc="http://creativecommons.org/ns#"
   xmlns:rdf="http://www.w3.org/1999/02/22-rdf-syntax-ns#"
   xmlns:svg="http://www.w3.org/2000/svg"
   xmlns="http://www.w3.org/2000/svg"
   xmlns:sodipodi="http://sodipodi.sourceforge.net/DTD/sodipodi-0.dtd"
   xmlns:inkscape="http://www.inkscape.org/namespaces/inkscape"
   inkscape:version="1.0 (1.0+r73)"
   sodipodi:docname="Medium_(website)-Logo.wine.svg"
   height="800"
   width="1200"
   viewBox="-57 -18.75 494 112.5"
   version="1.1"
   id="svg4">
  <sodipodi:namedview
     inkscape:current-layer="svg4"
     inkscape:window-maximized="1"
     inkscape:window-y="0"
     inkscape:window-x="0"
     inkscape:cy="340.44459"
     inkscape:cx="1013.0524"
     inkscape:zoom="0.515"
     showgrid="false"
     id="namedview6"
     inkscape:window-height="1012"
     inkscape:window-width="1920"
     inkscape:pageshadow="2"
     inkscape:pageopacity="0"
     guidetolerance="10"
     gridtolerance="10"
     objecttolerance="10"
     borderopacity="1"
     bordercolor="#666666"
     pagecolor="#ffffff" />
  <metadata
     id="metadata10">
    <rdf:RDF>
      <cc:Work
         rdf:about="">
        <dc:format>image/svg+xml</dc:format>
        <dc:type
           rdf:resource="http://purl.org/dc/dcmitype/StillImage" />
        <dc:title></dc:title>
      </cc:Work>
    </rdf:RDF>
  </metadata>
  <defs
     id="defs8" />
  <path
     d="m 345.35316,160.67771 28.15798,27.18401 v 0.90184 H 230.68179 v -0.90184 l 28.66772,-27.18401 c 3.05769,-2.51571 4.52167,-6.51257 3.82251,-10.43513 V -23.551194 c 0,-7.343543 0,-17.26377 1.27419,-25.766819 L 168.1225,192.24164 h -1.1466 L 67.211901,-29.992898 c -2.166137,-5.539866 -2.803426,-5.926369 -4.204701,-9.66256 V 106.05333 c -1.195411,9.74642 0.441116,19.63089 4.714038,28.47192 l 40.134822,53.33647 v 0.90184 H 1.3394682 v -0.90184 L 41.474315,134.39641 c 4.241473,-8.80501 5.877237,-18.63913 4.714463,-28.34308 V -54.986285 c 0.652755,-7.92931 -1.717799,-15.810952 -6.625513,-22.030633 L 11.150187,-114.24868 v -0.90186 H 113.08028 l 85.36635,188.223638 75.17342,-188.224488 h 99.76398 v 0.90183 l -28.03087,31.563942 c -3.35914,2.483062 -5.03742,6.675323 -4.33226,10.822065 V 150.24214 c -0.74295,4.04111 0.95983,8.14146 4.33226,10.43557 z"
     fill="#1c1b1a"
     id="path2"
     style="fill:#ffffff;stroke-width:4.29448" />
</svg>
